#!OML:ASF H:\Terrain\Walking\May29\JustinRory\Justin.ASF
:FULLY-SPECIFIED
:DEGREES
341
root 11.1419 16.2808 17.0076 -320.51 -47.1189 -24.1378
lowerback 14.8723 1.21215 4.12896
upperback 5.51117 2.09581 3.5559
thorax -2.47917 0.953073 1.0517
lowerneck -14.7296 -7.10263 -12.2659
upperneck 21.1562 -8.61036 7.15083
head 10.0236 -4.21927 3.37568
rclavicle 3.57812e-014 -6.91771e-014
rhumerus -80.808 -49.6911 41.9703
rradius 29.2038
rwrist -43.1125
rhand 69.1943 32.8335
rfingers 7.12502
rthumb 73.9372 -98.3385
lclavicle 3.57812e-014 -6.91771e-014
lhumerus -48.3871 31.4941 49.5358
lradius 25.5304
lwrist -11.3415
lhand -5.39936 34.4562
lfingers 7.12502
lthumb 20.4097 63.4036
rfemur -0.237666 -2.25966 20.478
rtibia 21.4851
rfoot -11.0964 -12.8656
rtoes -35.3922
lfemur -63.8726 20.8504 -19.2609
ltibia 70.1385
lfoot -27.8867 12.5126
ltoes 10.9261
342
root 11.0984 16.2777 17.179 -320.331 -46.4141 -25.0162
lowerback 15.0323 1.31336 4.88093
upperback 5.43151 2.35123 3.70912
thorax -2.61771 1.07827 0.744919
lowerneck -14.2256 -7.04163 -11.5994
upperneck 21.1423 -8.70857 6.96474
head 9.89027 -4.24502 3.2005
rclavicle 1.90833e-014 -6.99722e-014
rhumerus -81.369 -49.1091 42.2892
rradius 29.3439
rwrist -42.9262
rhand 65.7893 36.6611
rfingers 7.12502
rthumb 74.8005 -90.3651
lclavicle 1.90833e-014 -6.99722e-014
lhumerus -47.427 30.5248 50.1754
lradius 25.4715
lwrist -11.3113
lhand -4.94737 34.5967
lfingers 7.12502
lthumb 20.844 63.497
rfemur -0.738629 -2.24587 20.9506
rtibia 23.744
rfoot -9.0627 -12.3879
rtoes -34.4785
lfemur -62.6324 20.5908 -18.1991
ltibia 70.0391
lfoot -28.6072 12.3514
ltoes 11.9242
343
root 11.0639 16.3176 17.375 -321.604 -46.9463 -23.2617
lowerback 14.6494 1.30939 3.54849
upperback 5.40673 2.14283 3.40895
thorax -2.48869 0.978453 1.21824
lowerneck -14.1406 -6.84648 -11.552
upperneck 20.9814 -8.40788 6.80068
head 9.77607 -4.12137 3.18031
rclavicle -2.38542e-014 3.73715e-014
rhumerus -81.2145 -49.3857 42.3612
rradius 29.1455
rwrist -42.1406
rhand 63.0833 49.0165
rfingers 7.12502
rthumb 74.9757 -92.7062
lclavicle -2.38542e-014 3.73715e-014
lhumerus -46.8796 30.1326 50.8962
lradius 25.7102
lwrist -11.1605
lhand -4.58558 34.8831
lfingers 7.12502
lthumb 21.1915 63.7448
rfemur -1.76616 -2.05244 18.9353
rtibia 25.9977
rfoot -6.60119 -11.9983
rtoes -30.5518
lfemur -61.3339 19.8262 -19.84
ltibia 69.4174
lfoot -29.3841 12.7678
ltoes 12.4696
344
root 11.022 16.3602 17.5583 -321.991 -46.7324 -23.1857
lowerback 14.623 1.21739 3.41727
upperback 5.44679 2.00411 3.52018
thorax -2.4417 0.908367 1.43227
lowerneck -14.4373 -6.76521 -11.6963
upperneck 21.2345 -8.19814 6.63208
head 9.89991 -4.04946 3.16842
rclavicle -6.12257e-014 7.95139e-016
rhumerus -80.8487 -49.8545 42.4071
rradius 28.7886
rwrist -40.8494
rhand 60.5398 62.8955
rfingers 7.12502
rthumb 74.7096 -97.2352
lclavicle -6.12257e-014 7.95139e-016
lhumerus -46.3973 29.5336 51.7263
lradius 26.1053
lwrist -10.8153
lhand -4.4379 35.0877
lfingers 7.12502
lthumb 21.3334 63.9335
rfemur -2.56371 -0.901874 18.6693
rtibia 28.2929
rfoot -4.27327 -12.6821
rtoes -23.9187
lfemur -59.9675 19.5292 -19.9128
ltibia 68.8654
lfoot -29.854 13.0851
ltoes 12.0765
345
root 10.9847 16.4142 17.7466 -323.271 -46.8321 -22.0004
lowerback 14.754 1.12405 2.55198
upperback 5.44701 1.7736 3.46067
thorax -2.53902 0.790196 1.89249
lowerneck -14.7985 -6.83557 -11.6861
upperneck 21.7465 -8.21166 6.32939
head 10.1391 -4.08428 3.0505
rclavicle 3.97569e-015 -6.67916e-014
rhumerus -80.3187 -50.263 42.3815
rradius 28.5784
rwrist -40.1245
rhand 58.7438 72.6709
rfingers 7.12502
rthumb 74.2803 -100.72
lclavicle 3.97569e-015 -6.67916e-014
lhumerus -45.9267 29.009 52.5181
lradius 26.5539
lwrist -10.5972
lhand -3.89262 35.4029
lfingers 7.12502
lthumb 21.8571 64.1885
rfemur -3.41151 -0.493624 17.4728
rtibia 30.7782
rfoot -2.12142 -13.0468
rtoes -21.319
lfemur -58.3311 19.0427 -20.8758
ltibia 68.0627
lfoot -30.3671 13.3475
ltoes 11.8006
346
root 10.9572 16.4469 17.9168 -322.679 -46.2017 -22.7545
lowerback 14.5709 0.993143 3.30352
upperback 5.29067 1.71284 3.67576
thorax -2.58622 0.763507 1.70643
lowerneck -14.8929 -6.79172 -11.559
upperneck 21.921 -8.16236 6.24768
head 10.2045 -4.06066 3.00667
rclavicle 6.36111e-015 -2.94201e-014
rhumerus -79.2391 -50.1926 41.3065
rradius 28.5372
rwrist -40.5686
rhand 58.882 81.4627
rfingers 7.12502
rthumb 74.3201 -109.983
lclavicle 6.36111e-015 -2.94201e-014
lhumerus -45.2991 28.2097 53.2807
lradius 27.1742
lwrist -10.1976
lhand -2.77868 35.7432
lfingers 7.12502
lthumb 22.9264 64.4001
rfemur -5.01668 -0.119824 18.0722
rtibia 33.3871
rfoot 0.535873 -13.2204
rtoes -22.5335
lfemur -57.5747 18.9429 -20.3063
ltibia 67.4687
lfoot -30.6156 13.1667
ltoes 12.3444
347
root 10.9233 16.4847 18.0846 -322.987 -46.3572 -22.3672
lowerback 14.4236 0.991493 2.89938
upperback 5.14435 1.66139 3.59302
thorax -2.67173 0.739477 1.85597
lowerneck -14.9789 -6.67079 -11.4018
upperneck 21.9796 -7.97845 6.05422
head 10.2073 -3.9842 2.93781
rclavicle -2.94201e-014 -4.53229e-014
rhumerus -78.3609 -50.038 40.3541
rradius 28.5233
rwrist -40.9336
rhand 58.9343 81.3852
rfingers 7.12502
rthumb 74.3348 -110.084
lclavicle -2.94201e-014 -4.53229e-014
lhumerus -44.6942 27.0741 54.0459
lradius 27.7922
lwrist -9.86203
lhand -1.8215 35.7841
lfingers 7.12502
lthumb 23.8446 64.3241
rfemur -6.74601 0.298863 17.4634
rtibia 36.2858
rfoot 3.2407 -12.8629
rtoes -22.8144
lfemur -56.5176 18.8303 -20.8462
ltibia 66.7355
lfoot -30.9455 13.126
ltoes 12.2764
348
root 10.8854 16.5163 18.2499 -323.593 -46.5064 -21.9175
lowerback 14.4902 1.00879 2.42583
upperback 5.02112 1.63539 3.61691
thorax -2.85238 0.725482 2.15066
lowerneck -15.1656 -6.68137 -11.3678
upperneck 22.212 -7.89597 5.66998
head 10.3014 -3.98468 2.80329
rclavicle 2.38542e-014 3.89618e-014
rhumerus -77.883 -49.869 40.1054
rradius 28.5856
rwrist -40.9166
rhand 58.8567 82.074
rfingers 7.12502
rthumb 74.3129 -110.508
lclavicle 2.38542e-014 3.89618e-014
lhumerus -44.2292 25.9925 54.8812
lradius 28.4535
lwrist -9.8426
lhand -1.09887 35.6235
lfingers 7.12502
lthumb 24.5374 64.0713
rfemur -8.20758 0.878132 16.8038
rtibia 39.2733
rfoot 5.70626 -12.5519
rtoes -18.1649
lfemur -55.1126 18.6967 -21.2898
ltibia 65.9665
lfoot -31.351 13.1077
ltoes 11.7303
349
root 10.8462 16.547 18.416 -324.849 -46.6138 -20.8351
lowerback 14.6821 0.930615 1.7772
upperback 4.94661 1.45732 3.53105
thorax -3.04553 0.637871 2.45449
lowerneck -15.3438 -6.69195 -11.3654
upperneck 22.458 -7.82824 5.37324
head 10.406 -3.98622 2.70285
rclavicle -1.19271e-015 -9.54166e-015
rhumerus -76.9884 -49.2907 39.1822
rradius 28.9469
rwrist -41.5843
rhand 60.7245 86.445
rfingers 7.12502
rthumb 74.7427 -121.45
lclavicle -1.19271e-015 -9.54166e-015
lhumerus -43.8141 24.9857 55.6452
lradius 29.3015
lwrist -9.70315
lhand -0.210764 35.63
lfingers 7.12502
lthumb 25.3885 63.9597
rfemur -9.40541 1.20904 15.7991
rtibia 42.2242
rfoot 8.64761 -12.2258
rtoes -8.01348
lfemur -53.3869 18.4434 -22.1196
ltibia 65.008
lfoot -31.9683 12.7305
ltoes 12.9974
350
root 10.8098 16.5826 18.5795 -326.047 -46.4284 -19.9111
lowerback 14.8667 0.697686 1.47671
upperback 4.93405 1.11756 3.47923
thorax -3.1523 0.47078 2.62745
lowerneck -15.4457 -6.62818 -11.4892
upperneck 22.578 -7.65151 5.18011
head 10.4511 -3.9379 2.67785
rclavicle 1.35969e-013 2.38542e-014
rhumerus -76.653 -49.432 39.4
rradius 28.9328
rwrist -41.5025
rhand 63.2633 75.6216
rfingers 7.12502
rthumb 74.9788 -119.982
lclavicle 1.35969e-013 2.38542e-014
lhumerus -43.5381 24.3172 56.1498
lradius 30.1901
lwrist -9.80168
lhand 0.810902 35.5864
lfingers 7.12502
lthumb 26.3668 63.7732
rfemur -10.5408 1.45127 15.1942
rtibia 45.051
rfoot 11.6491 -10.9112
rtoes 0.39076
lfemur -51.5899 18.1009 -22.685
ltibia 63.9294
lfoot -32.5632 12.1836
ltoes 15.3947
351
root 10.7702 16.6314 18.7404 -327.557 -46.1571 -18.5025
lowerback 14.9293 0.416136 0.910208
upperback 4.96902 0.667311 3.33904
thorax -3.13805 0.249831 2.87899
lowerneck -15.5367 -6.62328 -11.7124
upperneck 22.5838 -7.56873 5.15807
head 10.4731 -3.92 2.71604
rclavicle -9.14409e-014 2.3059e-014
rhumerus -76.4223 -49.7806 39.726
rradius 28.6387
rwrist -41.3139
rhand 64.449 66.7352
rfingers 7.12502
rthumb 74.9463 -115.509
lclavicle -9.14409e-014 2.3059e-014
lhumerus -43.163 23.4337 56.7033
lradius 31.2679
lwrist -9.71431
lhand 1.70721 35.1854
lfingers 7.12502
lthumb 27.2245 63.2408
rfemur -11.6894 1.56129 14.3558
rtibia 47.7401
rfoot 13.3217 -8.32605
rtoes 5.34501
lfemur -49.7367 17.5551 -23.5437
ltibia 62.7432
lfoot -32.589 12.3682
ltoes 13.6348
